<svg xmlns="http://www.w3.org/2000/svg" xmlns:xlink="http://www.w3.org/1999/xlink" width="603" height="289" viewBox="0 0 603 289"><defs><path id="ruy4a" d="M252 2972.5c0-56.61 45.89-102.5 102.5-102.5S457 2915.89 457 2972.5 411.11 3075 354.5 3075 252 3029.11 252 2972.5zm107.5 45.965s2.447-.27 3.697-1.623c1.15-1.243 1.114-3.577 1.114-3.577s-.159-10.924 4.888-12.532c4.975-1.585 11.363 10.558 18.135 15.227 5.12 3.533 9.01 2.758 9.01 2.758l18.106-.253s9.471-.586 4.98-8.067c-.368-.612-2.615-5.535-13.461-15.649-11.352-10.586-9.832-8.873 3.843-27.185 8.328-11.151 11.658-17.96 10.618-20.875-.992-2.778-7.117-2.044-7.117-2.044l-20.386.128s-1.511-.207-2.632.466c-1.095.66-1.8 2.199-1.8 2.199s-3.226 8.629-7.53 15.968c-9.077 15.486-12.706 16.303-14.19 15.341-3.45-2.24-2.59-9.003-2.59-13.806 0-15.007 2.266-21.264-4.411-22.884-2.216-.538-3.847-.893-9.514-.95-7.274-.076-13.43.022-16.916 1.737-2.319 1.141-4.108 3.684-3.018 3.83 1.347.181 4.398.826 6.016 3.04 2.09 2.855 2.016 9.267 2.016 9.267s1.2 17.666-2.804 19.86c-2.747 1.506-6.517-1.567-14.61-15.616-4.146-7.197-7.277-15.151-7.277-15.151s-.604-1.487-1.68-2.282c-1.307-.963-3.133-1.27-3.133-1.27l-19.371.127s-2.908.082-3.976 1.352c-.95 1.13-.075 3.467-.075 3.467s15.166 35.646 32.338 53.61c15.745 16.469 33.626 15.387 33.626 15.387z"/><path id="ruy4b" d="M548.165 3017.674a4.843 4.843 0 0 1 1.411 3.411 4.859 4.859 0 0 1-1.411 3.411 4.87 4.87 0 0 1-3.411 1.412 4.86 4.86 0 0 1-3.407-1.412 4.862 4.862 0 0 1-1.416-3.41c0-1.272.517-2.517 1.416-3.412a4.842 4.842 0 0 1 3.407-1.411c1.271 0 2.516.512 3.41 1.411zm-4.376 24.149c0 10.902-8.87 19.772-19.772 19.772-10.903 0-19.773-8.87-19.773-19.772 0-10.903 8.87-19.773 19.773-19.773 10.902 0 19.772 8.87 19.772 19.773zm-6.808 0c0-7.15-5.816-12.965-12.964-12.965-7.149 0-12.965 5.815-12.965 12.964s5.816 12.964 12.965 12.964c7.148 0 12.964-5.815 12.964-12.964zm25.134-17.072v34.142c0 11.594-9.433 21.027-21.028 21.027h-34.142c-11.594 0-21.027-9.432-21.027-21.027v-34.142c0-11.594 9.433-21.027 21.027-21.027h34.142c11.595 0 21.028 9.433 21.028 21.027zm-6.76 34.142v-34.142c0-7.866-6.401-14.267-14.268-14.267h-34.142c-7.866 0-14.266 6.4-14.266 14.267v34.142c0 7.867 6.4 14.267 14.266 14.267h34.142c7.867 0 14.268-6.4 14.268-14.267zm-32.785 42.247c33.026 0 59.8-26.774 59.8-59.8 0-33.027-26.774-59.8-59.8-59.8-33.027 0-59.8 26.773-59.8 59.8 0 33.026 26.773 59.8 59.8 59.8z"/><path id="ruy4c" d="M32.69 3026.21l19.516-11.71-19.516-11.71z"/><path id="ruy4d" d="M78.293 3014.562s0 12.27-1.556 18.186a9.473 9.473 0 0 1-6.663 6.663c-5.916 1.558-29.579 1.558-29.579 1.558s-23.601 0-29.579-1.62a9.474 9.474 0 0 1-6.663-6.664c-1.557-5.853-1.557-18.185-1.557-18.185s0-12.269 1.557-18.185c.871-3.239 3.487-5.855 6.663-6.726 5.916-1.558 29.579-1.558 29.579-1.558s23.663 0 29.579 1.62a9.474 9.474 0 0 1 6.663 6.664c1.619 5.916 1.556 18.247 1.556 18.247zM40.5 2954c-33.408 0-60.5 27.092-60.5 60.5S7.092 3075 40.5 3075s60.5-27.092 60.5-60.5-27.092-60.5-60.5-60.5z"/><path id="ruy4e" d="M219.958 3086.917c-3.64 3.736-8.02 6.44-12.886 8.326-4.599 1.783-9.638 2.68-14.628 3.278.755.82 1.11 1.223 1.58 1.693 6.77 6.807 13.574 13.579 20.322 20.404 2.3 2.328 2.778 5.211 1.512 7.914-1.38 2.956-4.48 4.9-7.522 4.69-1.926-.133-3.428-1.09-4.761-2.432-5.111-5.142-10.318-10.192-15.322-15.43-1.46-1.526-2.16-1.235-3.447.089-5.14 5.294-10.365 10.503-15.62 15.685-2.36 2.327-5.167 2.749-7.905 1.417-2.91-1.407-4.76-4.379-4.618-7.368.1-2.016 1.092-3.562 2.479-4.941 6.703-6.69 13.385-13.4 20.069-20.104.444-.444.856-.916 1.5-1.608-9.116-.953-17.337-3.197-24.375-8.7-.875-.684-1.776-1.345-2.571-2.113-3.083-2.958-3.392-6.348-.956-9.837 2.087-2.988 5.586-3.786 9.225-2.07.706.33 1.377.75 2.02 1.192 13.115 9.012 31.134 9.26 44.301.403 1.304-.996 2.699-1.816 4.315-2.229 3.14-.81 6.072.348 7.756 3.096 1.928 3.142 1.905 6.205-.468 8.645zm-33.337-71.22c16.46.045 29.67 13.505 29.585 30.143-.083 16.254-13.51 29.428-29.941 29.373-16.264-.056-29.602-13.537-29.506-29.824.092-16.465 13.437-29.737 29.862-29.692zM186.5 2990c-46.668 0-84.5 37.834-84.5 84.5s37.832 84.5 84.5 84.5 84.5-37.834 84.5-84.5-37.832-84.5-84.5-84.5z"/></defs><g><g transform="translate(20 -2870)"><use fill="#ff0" xlink:href="#ruy4a"/></g><g transform="translate(20 -2870)"><use fill="#ff0" xlink:href="#ruy4b"/></g><g transform="translate(20 -2870)"><use fill="#ff0" xlink:href="#ruy4c"/></g><g transform="translate(20 -2870)"><use fill="#ff0" xlink:href="#ruy4d"/></g><g transform="translate(20 -2870)"><use fill="#ff0" xlink:href="#ruy4e"/></g></g></svg>