<svg xmlns="http://www.w3.org/2000/svg" xmlns:xlink="http://www.w3.org/1999/xlink" width="121" height="121" viewBox="0 0 121 121"><defs><path id="kvbra" d="M548.165 3017.674a4.843 4.843 0 0 1 1.411 3.411 4.859 4.859 0 0 1-1.411 3.411 4.87 4.87 0 0 1-3.411 1.412 4.86 4.86 0 0 1-3.407-1.412 4.862 4.862 0 0 1-1.416-3.41c0-1.272.517-2.517 1.416-3.412a4.842 4.842 0 0 1 3.407-1.411c1.271 0 2.516.512 3.41 1.411zm-4.376 24.149c0 10.902-8.87 19.772-19.772 19.772-10.903 0-19.773-8.87-19.773-19.772 0-10.903 8.87-19.773 19.773-19.773 10.902 0 19.772 8.87 19.772 19.773zm-6.808 0c0-7.15-5.816-12.965-12.964-12.965-7.149 0-12.965 5.815-12.965 12.964s5.816 12.964 12.965 12.964c7.148 0 12.964-5.815 12.964-12.964zm25.134-17.072v34.142c0 11.594-9.433 21.027-21.028 21.027h-34.142c-11.594 0-21.027-9.432-21.027-21.027v-34.142c0-11.594 9.433-21.027 21.027-21.027h34.142c11.595 0 21.028 9.433 21.028 21.027zm-6.76 34.142v-34.142c0-7.866-6.401-14.267-14.268-14.267h-34.142c-7.866 0-14.266 6.4-14.266 14.267v34.142c0 7.867 6.4 14.267 14.266 14.267h34.142c7.867 0 14.268-6.4 14.268-14.267zm-32.785 42.247c33.026 0 59.8-26.774 59.8-59.8 0-33.027-26.774-59.8-59.8-59.8-33.027 0-59.8 26.773-59.8 59.8 0 33.026 26.773 59.8 59.8 59.8z"/></defs><g><g transform="translate(-462 -2981)"><use fill="#ff0" xlink:href="#kvbra"/></g></g></svg>