<svg xmlns="http://www.w3.org/2000/svg" xmlns:xlink="http://www.w3.org/1999/xlink" width="169" height="169" viewBox="0 0 169 169"><defs><path id="7b67a" d="M185.594 3060c8.035-.03 14.435-6.482 14.406-14.532-.03-8.053-6.443-14.461-14.482-14.468-8.106-.009-14.58 6.518-14.518 14.644.06 8.02 6.533 14.385 14.594 14.356z"/><path id="7b67b" d="M219.958 3086.917c-3.64 3.736-8.02 6.44-12.886 8.326-4.599 1.783-9.638 2.68-14.628 3.278.755.82 1.11 1.223 1.58 1.693 6.77 6.807 13.574 13.579 20.322 20.404 2.3 2.328 2.778 5.211 1.512 7.914-1.38 2.956-4.48 4.9-7.522 4.69-1.926-.133-3.428-1.09-4.761-2.432-5.111-5.142-10.318-10.192-15.322-15.43-1.46-1.526-2.16-1.235-3.447.089-5.14 5.294-10.365 10.503-15.62 15.685-2.36 2.327-5.167 2.749-7.905 1.417-2.91-1.407-4.76-4.379-4.618-7.368.1-2.016 1.092-3.562 2.479-4.941 6.703-6.69 13.385-13.4 20.069-20.104.444-.444.856-.916 1.5-1.608-9.116-.953-17.337-3.197-24.375-8.7-.875-.684-1.776-1.345-2.571-2.113-3.083-2.958-3.392-6.348-.956-9.837 2.087-2.988 5.586-3.786 9.225-2.07.706.33 1.377.75 2.02 1.192 13.115 9.012 31.134 9.26 44.301.403 1.304-.996 2.699-1.816 4.315-2.229 3.14-.81 6.072.348 7.756 3.096 1.928 3.142 1.905 6.205-.468 8.645zm-33.337-71.22c16.46.045 29.67 13.505 29.585 30.143-.083 16.254-13.51 29.428-29.941 29.373-16.264-.056-29.602-13.537-29.506-29.824.092-16.465 13.437-29.737 29.862-29.692zM186.5 2990c-46.668 0-84.5 37.834-84.5 84.5s37.832 84.5 84.5 84.5 84.5-37.834 84.5-84.5-37.832-84.5-84.5-84.5z"/></defs><g><g transform="translate(-102 -2990)"><use fill="#ff0" xlink:href="#7b67a"/></g><g transform="translate(-102 -2990)"><use fill="#ff0" xlink:href="#7b67b"/></g></g></svg>