<svg xmlns="http://www.w3.org/2000/svg" xmlns:xlink="http://www.w3.org/1999/xlink" width="205" height="205" viewBox="0 0 205 205"><defs><path id="cti9a" d="M252 2972.5c0-56.61 45.89-102.5 102.5-102.5S457 2915.89 457 2972.5 411.11 3075 354.5 3075 252 3029.11 252 2972.5zm107.5 45.965s2.447-.27 3.697-1.623c1.15-1.243 1.114-3.577 1.114-3.577s-.159-10.924 4.888-12.532c4.975-1.585 11.363 10.558 18.135 15.227 5.12 3.533 9.01 2.758 9.01 2.758l18.106-.253s9.471-.586 4.98-8.067c-.368-.612-2.615-5.535-13.461-15.649-11.352-10.586-9.832-8.873 3.843-27.185 8.328-11.151 11.658-17.96 10.618-20.875-.992-2.778-7.117-2.044-7.117-2.044l-20.386.128s-1.511-.207-2.632.466c-1.095.66-1.8 2.199-1.8 2.199s-3.226 8.629-7.53 15.968c-9.077 15.486-12.706 16.303-14.19 15.341-3.45-2.24-2.59-9.003-2.59-13.806 0-15.007 2.266-21.264-4.411-22.884-2.216-.538-3.847-.893-9.514-.95-7.274-.076-13.43.022-16.916 1.737-2.319 1.141-4.108 3.684-3.018 3.83 1.347.181 4.398.826 6.016 3.04 2.09 2.855 2.016 9.267 2.016 9.267s1.2 17.666-2.804 19.86c-2.747 1.506-6.517-1.567-14.61-15.616-4.146-7.197-7.277-15.151-7.277-15.151s-.604-1.487-1.68-2.282c-1.307-.963-3.133-1.27-3.133-1.27l-19.371.127s-2.908.082-3.976 1.352c-.95 1.13-.075 3.467-.075 3.467s15.166 35.646 32.338 53.61c15.745 16.469 33.626 15.387 33.626 15.387z"/></defs><g><g transform="translate(-252 -2870)"><use fill="#ff0" xlink:href="#cti9a"/></g></g></svg>