<!DOCTYPE svg PUBLIC "-//W3C//DTD SVG 20010904//EN" "http://www.w3.org/TR/2001/REC-SVG-20010904/DTD/svg10.dtd">
<svg version="1.0" xmlns="http://www.w3.org/2000/svg" width="121px" height="121px" viewBox="0 0 1210 1210" preserveAspectRatio="xMidYMid meet">
<g id="layer101" fill="#ffff00" stroke="none">
 <path d="M450 1194 c-169 -44 -312 -161 -387 -314 -50 -103 -63 -162 -63 -283 0 -168 57 -305 175 -422 117 -118 258 -175 430 -175 260 0 469 142 566 385 26 65 32 99 37 182 3 61 0 127 -7 165 -14 72 -65 182 -116 250 -70 95 -201 179 -330 213 -74 19 -231 19 -305 -1z m449 -347 c62 -20 75 -64 75 -242 1 -223 -12 -241 -178 -256 -119 -12 -436 -2 -486 15 -60 19 -74 64 -75 236 0 160 11 210 51 237 48 31 524 39 613 10z"/>
 <path d="M520 605 c0 -75 4 -115 11 -115 17 0 189 104 189 115 0 11 -172 115 -189 115 -7 0 -11 -40 -11 -115z"/>
 </g>

</svg>